<?xml version="1.0" encoding="iso-8859-1"?>
<!-- Generator: Adobe Illustrator 17.1.0, SVG Export Plug-In . SVG Version: 6.00 Build 0)  -->
<!DOCTYPE svg PUBLIC "-//W3C//DTD SVG 1.1//EN" "http://www.w3.org/Graphics/SVG/1.1/DTD/svg11.dtd">
<svg version="1.1" id="Capa_1" xmlns="http://www.w3.org/2000/svg" xmlns:xlink="http://www.w3.org/1999/xlink" x="0px" y="0px"
	 viewBox="0 0 490 490" style="enable-background:new 0 0 490 490;" xml:space="preserve">
<g>
	<g>
		<path d="M244.99,211.903c-7.128,0-12.907,5.774-12.907,12.902c0,7.134,5.779,12.915,12.907,12.915
			c7.127,0,12.912-5.781,12.912-12.915C257.901,217.677,252.116,211.903,244.99,211.903z"/>
		<path d="M244.99,78.408c-80.727,0-146.404,65.679-146.404,146.397c0,80.733,65.677,146.405,146.404,146.405
			c80.728,0,146.402-65.671,146.402-146.405C391.392,144.086,325.718,78.408,244.99,78.408z M300.173,315.748
			c-8.996-8.483,4.043-23.155-5.973-40.782c-7.188-12.658-21.424-18.632-27.838-20.779c-6,4.374-13.381,6.959-21.373,6.959
			c-7.381,0-14.243-2.207-19.976-5.984c-1.653,20.043-9.808,46.091-26.765,55.882c-54.185,31.282-78.859-78.148-59.61-83.909
			c11.851-3.553,18.033,15.074,38.312,15.224c14.548,0.095,26.838-9.237,31.9-13.724c-0.13-1.255-0.196-2.536-0.196-3.829
			c0-14.2,8.157-26.494,20.038-32.468c-16.538-11.46-35.012-31.54-35.012-51.118c0-62.566,107.103-29.225,102.474-9.671
			c-2.852,12.036-22.078,8.077-32.34,25.572c-7.363,12.549-5.424,27.857-4.068,34.49c12.713,5.66,21.578,18.386,21.578,33.196
			c0,0.723-0.023,1.424-0.068,2.128c18.19-8.592,44.824-14.552,61.775-4.763C397.22,253.453,314.792,329.536,300.173,315.748z"/>
	</g>
	<g>
		<path d="M418.913,482.596c0,4.084-3.316,7.404-7.408,7.404h-35.199c-4.092,0-7.41-3.319-7.41-7.404v-14.824
			c0-4.091,3.318-7.411,7.41-7.411h35.199c4.092,0,7.408,3.32,7.408,7.411V482.596z"/>
		<path d="M120.866,482.596c0,4.084-3.321,7.404-7.411,7.404H78.256c-4.092,0-7.411-3.319-7.411-7.404v-14.824
			c0-4.091,3.319-7.411,7.411-7.411h35.199c4.09,0,7.411,3.32,7.411,7.411V482.596z"/>
	</g>
	<path d="M435.134,0H54.87C39.663,0,27.292,12.375,27.292,27.573v394.471c0,15.205,12.371,27.574,27.578,27.574h380.264
		c15.201,0,27.574-12.369,27.574-27.574V27.573C462.708,12.375,450.335,0,435.134,0z M418.913,58.016
		c0,10.944-7.297,20.169-17.289,23.105V34.915C411.616,37.852,418.913,47.09,418.913,58.016z M388.042,34.915v46.206
		c-9.988-2.936-17.289-12.162-17.289-23.105C370.753,47.09,378.054,37.852,388.042,34.915z M419.112,233.639
		c0,4.857-3.939,8.798-8.801,8.798c-0.465,0-0.92-0.045-1.365-0.119c-4.01,37.268-20.457,71.796-47.338,98.68
		c-26.893,26.896-61.441,43.344-98.733,47.333c0.121,0.586,0.182,1.181,0.182,1.79c0,4.857-3.941,8.799-8.797,8.799h-18.522
		c-4.857,0-8.797-3.941-8.797-8.799c0-0.608,0.062-1.204,0.179-1.776c-37.295-3.997-71.85-20.451-98.751-47.347
		c-26.883-26.878-43.329-61.412-47.333-98.674c-0.443,0.068-0.889,0.113-1.35,0.113c-4.861,0-8.799-3.941-8.799-8.798v-17.718
		c0-4.864,3.938-8.805,8.799-8.805c0.461,0,0.907,0.052,1.35,0.12c4.005-37.27,20.451-72.599,47.333-99.475
		c26.862-26.866,61.365-43.313,98.603-47.336c-0.031-0.3-0.05-0.607-0.05-0.929c0-4.856,3.939-8.797,8.799-8.797h18.516
		c4.859,0,8.805,3.94,8.805,8.797c0,0.316-0.022,0.629-0.053,0.929c37.246,4.023,71.754,20.465,98.619,47.336
		c26.881,26.876,43.328,62.251,47.338,99.521c0.445-0.068,0.9-0.12,1.365-0.12c4.861,0,8.801,3.941,8.801,8.805V233.639z"/>
</g>
<g>
</g>
<g>
</g>
<g>
</g>
<g>
</g>
<g>
</g>
<g>
</g>
<g>
</g>
<g>
</g>
<g>
</g>
<g>
</g>
<g>
</g>
<g>
</g>
<g>
</g>
<g>
</g>
<g>
</g>
</svg>
