<?xml version="1.0" encoding="utf-8"?>
<svg id="master-artboard" viewBox="0 0 1400 980" xmlns="http://www.w3.org/2000/svg" width="1400px" height="980px" version="1.1" style="shape-rendering:geometricPrecision; text-rendering:geometricPrecision; image-rendering:optimizeQuality; fill-rule:evenodd; clip-rule:evenodd"><rect id="ee-background" x="0" y="0" width="1400" height="980" style="fill: white; fill-opacity: 0; pointer-events: none;"/><g transform="matrix(40.833335876464844, 0, 0, 40.833335876464844, 210.00011756203276, 0.000005201859949011123)"><title>OOjs_UI_icon_bulb2</title><path d="M12,3a5,5,0,0,1,5,5A6.11,6.11,0,0,1,16,11.29c-.22.41-.46.86-.72,1.4a6.5,6.5,0,0,0-.38,1c0,.09-.06.21-.09.3H9.24c0-.09-.07-.21-.09-.3a6.5,6.5,0,0,0-.38-1c-.26-.54-.5-1-.72-1.4A6.11,6.11,0,0,1,7,8a5,5,0,0,1,5-5m0-1A6,6,0,0,0,6,8c0,2,.77,2.87,1.88,5.13C8.31,14,8.25,15,9,15h6c.75,0,.69-1,1.13-1.87C17.23,10.87,18,10,18,8a6,6,0,0,0-6-6Z"/><path d="M10.12,20A2.05,2.05,0,0,0,12,21a2.05,2.05,0,0,0,1.88-1Z"/><path d="M9,15v.59l4.55.41a.5.5,0,0,1-.05,1h-.05L9,16.59v1l4.55.41a.5.5,0,0,1-.05,1h-.05L9,18.59V19a1,1,0,0,0,1,1h4a1,1,0,0,0,1-1V15Z"/></g><path d="M 490 326.3636169433594 L 918.1818237304688 320.9090881347656 L 890.9090576171875 454.5454406738281 L 839.0908813476562 552.7272338867188 C 839.0908813476562 552.7272338867188 817.2726440429688 588.1817626953125 811.818115234375 588.1817626953125 C 806.3635864257812 588.1817626953125 593.6363525390625 585.4545288085938 593.6363525390625 585.4545288085938 C 593.6363525390625 585.4545288085938 549.9999389648438 528.1817626953125 547.272705078125 522.7272338867188 C 544.5454711914062 517.272705078125 500.9090881347656 427.272705078125 500.9090881347656 427.272705078125 L 490 326.3636169433594 Z" style="fill: rgb(0, 0, 0); fill-opacity: 1; stroke: rgb(0, 0, 0); stroke-opacity: 1; stroke-width: 0; paint-order: fill;"/><path d="M 683.6363525390625 102.7272720336914 L 776.3636474609375 113.63636016845703 C 776.3636474609375 113.63636016845703 852.7272338867188 157.27273559570312 852.7272338867188 160 C 852.7272338867188 162.72726440429688 899.0908813476562 233.6363525390625 899.0908813476562 233.6363525390625 L 929.0908813476562 312.7272644042969 L 912.7272338867188 378.1817932128906 C 912.7272338867188 378.1817932128906 719.0908203125 394.54547119140625 702.7272338867188 389.0909118652344 C 686.3636474609375 383.6363525390625 569.0908813476562 375.45452880859375 569.0908813476562 375.45452880859375 L 476.3636169433594 364.5454406738281 L 476.3636169433594 269.0909118652344 L 533.6363525390625 179.0908966064453 L 599.0908813476562 124.54544830322266 L 683.6363525390625 102.7272720336914 Z" style="fill: rgb(0, 0, 0); fill-opacity: 1; stroke: rgb(0, 0, 0); stroke-opacity: 1; stroke-width: 0; paint-order: stroke;"/></svg>