<?xml version="1.0" encoding="utf-8"?>
<svg id="master-artboard" viewBox="0 0 1400 980" xmlns="http://www.w3.org/2000/svg" width="1400px" height="980px" version="1.1" style="shape-rendering:geometricPrecision; text-rendering:geometricPrecision; image-rendering:optimizeQuality; fill-rule:evenodd; clip-rule:evenodd"><rect id="ee-background" x="0" y="0" width="1400" height="980" style="fill: white; fill-opacity: 0; pointer-events: none;"/><g transform="matrix(40.833335876464844, 0, 0, 40.833335876464844, 210.00011756203276, 0.000005201859949011123)"><title>OOjs_UI_icon_bulb2</title><path d="M12,3a5,5,0,0,1,5,5A6.11,6.11,0,0,1,16,11.29c-.22.41-.46.86-.72,1.4a6.5,6.5,0,0,0-.38,1c0,.09-.06.21-.09.3H9.24c0-.09-.07-.21-.09-.3a6.5,6.5,0,0,0-.38-1c-.26-.54-.5-1-.72-1.4A6.11,6.11,0,0,1,7,8a5,5,0,0,1,5-5m0-1A6,6,0,0,0,6,8c0,2,.77,2.87,1.88,5.13C8.31,14,8.25,15,9,15h6c.75,0,.69-1,1.13-1.87C17.23,10.87,18,10,18,8a6,6,0,0,0-6-6Z"/><path d="M10.12,20A2.05,2.05,0,0,0,12,21a2.05,2.05,0,0,0,1.88-1Z"/><path d="M9,15v.59l4.55.41a.5.5,0,0,1-.05,1h-.05L9,16.59v1l4.55.41a.5.5,0,0,1-.05,1h-.05L9,18.59V19a1,1,0,0,0,1,1h4a1,1,0,0,0,1-1V15Z"/></g></svg>